<svg xmlns="http://www.w3.org/2000/svg" xmlns:xlink="http://www.w3.org/1999/xlink" viewBox="0 0 500 500" width="500" height="500" preserveAspectRatio="xMidYMid meet" style="width: 100%; height: 100%; transform: translate3d(0px, 0px, 0px); content-visibility: visible;"><defs><clipPath id="__lottie_element_211"><rect width="500" height="500" x="0" y="0"></rect></clipPath><g id="__lottie_element_216"><g id="VNWWFHayw7" transform="matrix(1.8300000429153442,0,0,1.8300000429153442,120.98500061035156,62.77000045776367)" opacity="1" style="display: none;"><g id="eCLjS7Bgwa" opacity="1" transform="matrix(1,0,0,1,64.91300201416016,103.38200378417969)"><path stroke-linecap="butt" stroke-linejoin="miter" fill-opacity="0" stroke-miterlimit="10" id="OOgSuIE_67" stroke="rgb(217,223,230)" stroke-opacity="1" stroke-width="5" d=" M52.41299819946289,68.48100280761719 C52.41299819946289,68.48100280761719 -52.41299819946289,68.48100280761719 -52.41299819946289,68.48100280761719 C-52.41299819946289,68.48100280761719 -52.41299819946289,-22.187999725341797 -52.41299819946289,-22.187999725341797 C-52.41299819946289,-22.187999725341797 -12.62600040435791,-29.45800018310547 -12.62600040435791,-29.45800018310547 C-12.62600040435791,-29.45800018310547 -10.565999984741211,-68.48100280761719 -10.565999984741211,-68.48100280761719 C-10.565999984741211,-68.48100280761719 52.41299819946289,-68.48100280761719 52.41299819946289,-68.48100280761719 C52.41299819946289,-68.48100280761719 52.41299819946289,68.48100280761719 52.41299819946289,68.48100280761719z"></path><path id="lZRRasWtPg" fill="rgb(217,223,230)" fill-opacity="1" d=" M52.41299819946289,68.48100280761719 C52.41299819946289,68.48100280761719 -52.41299819946289,68.48100280761719 -52.41299819946289,68.48100280761719 C-52.41299819946289,68.48100280761719 -52.41299819946289,-22.187999725341797 -52.41299819946289,-22.187999725341797 C-52.41299819946289,-22.187999725341797 -12.62600040435791,-29.45800018310547 -12.62600040435791,-29.45800018310547 C-12.62600040435791,-29.45800018310547 -10.565999984741211,-68.48100280761719 -10.565999984741211,-68.48100280761719 C-10.565999984741211,-68.48100280761719 52.41299819946289,-68.48100280761719 52.41299819946289,-68.48100280761719 C52.41299819946289,-68.48100280761719 52.41299819946289,68.48100280761719 52.41299819946289,68.48100280761719z"></path></g><g id="_kxDdG3-Wg" opacity="1" transform="matrix(1,0,0,1,32.49700164794922,56.891998291015625)"><path id="KqZGzwbyhA" fill="rgb(217,223,230)" fill-opacity="1" d=" M22.350000381469727,-21.990999221801758 C22.350000381469727,-21.990999221801758 19.256999969482422,-24.302000045776367 19.256999969482422,-24.302000045776367 C19.256999969482422,-24.302000045776367 -22.350000381469727,21.89299964904785 -22.350000381469727,21.89299964904785 C-22.350000381469727,21.89299964904785 -19.49799919128418,24.302000045776367 -19.49799919128418,24.302000045776367 C-19.49799919128418,24.302000045776367 20.288999557495117,17.0310001373291 20.288999557495117,17.0310001373291 C20.288999557495117,17.0310001373291 22.350000381469727,-21.990999221801758 22.350000381469727,-21.990999221801758z"></path></g><g id="TptxjRcoGp" opacity="1" transform="matrix(1,0,0,1,111.19400024414062,121.6709976196289)"><path stroke-linecap="butt" stroke-linejoin="miter" fill-opacity="0" stroke-miterlimit="4" id="MoL3xnb1PM" stroke="rgb(0,0,0)" stroke-opacity="1" stroke-width="10" d=" M-11.8100004196167,35.7859992980957 C-15.013999938964844,35.7859992980957 -18.02899932861328,34.53900146484375 -20.29599952697754,32.27299880981445 C-22.562999725341797,30.006000518798828 -23.809999465942383,26.992000579833984 -23.809999465942383,23.785999298095703 C-23.809999465942383,20.579999923706055 -22.562999725341797,17.566999435424805 -20.29599952697754,15.300999641418457 C-20.29599952697754,15.300999641418457 -5.048999786376953,0.054999999701976776 -5.048999786376953,0.054999999701976776 C-5.048999786376953,0.054999999701976776 -20.4060001373291,-15.300999641418457 -20.4060001373291,-15.300999641418457 C-22.672000885009766,-17.566999435424805 -23.92099952697754,-20.579999923706055 -23.92099952697754,-23.785999298095703 C-23.92099952697754,-26.990999221801758 -22.672000885009766,-30.006000518798828 -20.4060001373291,-32.27299880981445 C-18.138999938964844,-34.53900146484375 -15.12600040435791,-35.7859992980957 -11.920999526977539,-35.7859992980957 C-8.715999603271484,-35.7859992980957 -5.702000141143799,-34.53900146484375 -3.434999942779541,-32.27299880981445 C-3.434999942779541,-32.27299880981445 20.4060001373291,-8.430000305175781 20.4060001373291,-8.430000305175781 C22.672000885009766,-6.163000106811523 23.92099952697754,-3.1519999504089355 23.92099952697754,0.054999999701976776 C23.92099952697754,3.260999917984009 22.672000885009766,6.27400016784668 20.4060001373291,8.541000366210938 C20.4060001373291,8.541000366210938 -3.325000047683716,32.270999908447266 -3.325000047683716,32.270999908447266 C-5.5920000076293945,34.53799819946289 -8.605999946594238,35.7859992980957 -11.8100004196167,35.7859992980957z"></path><path id="sFj2c9t4fs" fill="rgb(0,0,0)" fill-opacity="1" d=" M-11.8100004196167,35.7859992980957 C-15.013999938964844,35.7859992980957 -18.02899932861328,34.53900146484375 -20.29599952697754,32.27299880981445 C-22.562999725341797,30.006000518798828 -23.809999465942383,26.992000579833984 -23.809999465942383,23.785999298095703 C-23.809999465942383,20.579999923706055 -22.562999725341797,17.566999435424805 -20.29599952697754,15.300999641418457 C-20.29599952697754,15.300999641418457 -5.048999786376953,0.054999999701976776 -5.048999786376953,0.054999999701976776 C-5.048999786376953,0.054999999701976776 -20.4060001373291,-15.300999641418457 -20.4060001373291,-15.300999641418457 C-22.672000885009766,-17.566999435424805 -23.92099952697754,-20.579999923706055 -23.92099952697754,-23.785999298095703 C-23.92099952697754,-26.990999221801758 -22.672000885009766,-30.006000518798828 -20.4060001373291,-32.27299880981445 C-18.138999938964844,-34.53900146484375 -15.12600040435791,-35.7859992980957 -11.920999526977539,-35.7859992980957 C-8.715999603271484,-35.7859992980957 -5.702000141143799,-34.53900146484375 -3.434999942779541,-32.27299880981445 C-3.434999942779541,-32.27299880981445 20.4060001373291,-8.430000305175781 20.4060001373291,-8.430000305175781 C22.672000885009766,-6.163000106811523 23.92099952697754,-3.1519999504089355 23.92099952697754,0.054999999701976776 C23.92099952697754,3.260999917984009 22.672000885009766,6.27400016784668 20.4060001373291,8.541000366210938 C20.4060001373291,8.541000366210938 -3.325000047683716,32.270999908447266 -3.325000047683716,32.270999908447266 C-5.5920000076293945,34.53799819946289 -8.605999946594238,35.7859992980957 -11.8100004196167,35.7859992980957z"></path></g><g id="huI_6JtEaf" opacity="1" transform="matrix(1,0,0,1,59.51100158691406,121.6709976196289)"><path stroke-linecap="butt" stroke-linejoin="miter" fill-opacity="0" stroke-miterlimit="4" id="jHRPf_0Nfc" stroke="rgb(0,0,0)" stroke-opacity="1" stroke-width="10" d=" M11.920999526977539,35.7859992980957 C8.717000007629395,35.7859992980957 5.703000068664551,34.53900146484375 3.436000108718872,32.27299880981445 C3.436000108718872,32.27299880981445 -20.4060001373291,8.430000305175781 -20.4060001373291,8.430000305175781 C-22.67300033569336,6.164000034332275 -23.92099952697754,3.1510000228881836 -23.92099952697754,-0.054999999701976776 C-23.92099952697754,-3.260999917984009 -22.67300033569336,-6.276000022888184 -20.4060001373291,-8.541000366210938 C-20.4060001373291,-8.541000366210938 3.325000047683716,-32.27299880981445 3.325000047683716,-32.27299880981445 C5.5920000076293945,-34.53900146484375 8.605999946594238,-35.7859992980957 11.810999870300293,-35.7859992980957 C15.015999794006348,-35.7859992980957 18.02899932861328,-34.53900146484375 20.29599952697754,-32.27299880981445 C22.562999725341797,-30.006000518798828 23.81100082397461,-26.990999221801758 23.81100082397461,-23.785999298095703 C23.81100082397461,-20.579999923706055 22.562999725341797,-17.566999435424805 20.29599952697754,-15.300999641418457 C20.29599952697754,-15.300999641418457 5.050000190734863,-0.054999999701976776 5.050000190734863,-0.054999999701976776 C5.050000190734863,-0.054999999701976776 20.4060001373291,15.300999641418457 20.4060001373291,15.300999641418457 C22.67300033569336,17.566999435424805 23.92099952697754,20.579999923706055 23.92099952697754,23.785999298095703 C23.92099952697754,26.992000579833984 22.67300033569336,30.0049991607666 20.4060001373291,32.270999908447266 C18.138999938964844,34.53799819946289 15.125,35.7859992980957 11.920999526977539,35.7859992980957z"></path><path id="qMNH3HiDDN" fill="rgb(0,0,0)" fill-opacity="1" d=" M11.920999526977539,35.7859992980957 C8.717000007629395,35.7859992980957 5.703000068664551,34.53900146484375 3.436000108718872,32.27299880981445 C3.436000108718872,32.27299880981445 -20.4060001373291,8.430000305175781 -20.4060001373291,8.430000305175781 C-22.67300033569336,6.164000034332275 -23.92099952697754,3.1510000228881836 -23.92099952697754,-0.054999999701976776 C-23.92099952697754,-3.260999917984009 -22.67300033569336,-6.276000022888184 -20.4060001373291,-8.541000366210938 C-20.4060001373291,-8.541000366210938 3.325000047683716,-32.27299880981445 3.325000047683716,-32.27299880981445 C5.5920000076293945,-34.53900146484375 8.605999946594238,-35.7859992980957 11.810999870300293,-35.7859992980957 C15.015999794006348,-35.7859992980957 18.02899932861328,-34.53900146484375 20.29599952697754,-32.27299880981445 C22.562999725341797,-30.006000518798828 23.81100082397461,-26.990999221801758 23.81100082397461,-23.785999298095703 C23.81100082397461,-20.579999923706055 22.562999725341797,-17.566999435424805 20.29599952697754,-15.300999641418457 C20.29599952697754,-15.300999641418457 5.050000190734863,-0.054999999701976776 5.050000190734863,-0.054999999701976776 C5.050000190734863,-0.054999999701976776 20.4060001373291,15.300999641418457 20.4060001373291,15.300999641418457 C22.67300033569336,17.566999435424805 23.92099952697754,20.579999923706055 23.92099952697754,23.785999298095703 C23.92099952697754,26.992000579833984 22.67300033569336,30.0049991607666 20.4060001373291,32.270999908447266 C18.138999938964844,34.53799819946289 15.125,35.7859992980957 11.920999526977539,35.7859992980957z"></path></g></g></g><g id="__lottie_element_222"><g id="ixyxJhxa81" transform="matrix(1.8300000429153442,0,0,1.8300000429153442,120.98500061035156,62.77000045776367)" opacity="1" style="display: none;"><g id="SDo0ocSoaX" opacity="1" transform="matrix(1,0,0,1,64.91300201416016,103.38200378417969)"><path stroke-linecap="butt" stroke-linejoin="miter" fill-opacity="0" stroke-miterlimit="10" id="2Wz7V61qHr" stroke="rgb(217,223,230)" stroke-opacity="1" stroke-width="5" d=" M52.41299819946289,68.48100280761719 C52.41299819946289,68.48100280761719 -52.41299819946289,68.48100280761719 -52.41299819946289,68.48100280761719 C-52.41299819946289,68.48100280761719 -52.41299819946289,-22.187999725341797 -52.41299819946289,-22.187999725341797 C-52.41299819946289,-22.187999725341797 -12.62600040435791,-29.45800018310547 -12.62600040435791,-29.45800018310547 C-12.62600040435791,-29.45800018310547 -10.565999984741211,-68.48100280761719 -10.565999984741211,-68.48100280761719 C-10.565999984741211,-68.48100280761719 52.41299819946289,-68.48100280761719 52.41299819946289,-68.48100280761719 C52.41299819946289,-68.48100280761719 52.41299819946289,68.48100280761719 52.41299819946289,68.48100280761719z"></path><path id="5fp57nciCV" fill="rgb(217,223,230)" fill-opacity="1" d=" M52.41299819946289,68.48100280761719 C52.41299819946289,68.48100280761719 -52.41299819946289,68.48100280761719 -52.41299819946289,68.48100280761719 C-52.41299819946289,68.48100280761719 -52.41299819946289,-22.187999725341797 -52.41299819946289,-22.187999725341797 C-52.41299819946289,-22.187999725341797 -12.62600040435791,-29.45800018310547 -12.62600040435791,-29.45800018310547 C-12.62600040435791,-29.45800018310547 -10.565999984741211,-68.48100280761719 -10.565999984741211,-68.48100280761719 C-10.565999984741211,-68.48100280761719 52.41299819946289,-68.48100280761719 52.41299819946289,-68.48100280761719 C52.41299819946289,-68.48100280761719 52.41299819946289,68.48100280761719 52.41299819946289,68.48100280761719z"></path></g><g id="BgAQkZlvFY" opacity="1" transform="matrix(1,0,0,1,32.49700164794922,56.891998291015625)"><path id="9bP_pGuQbo" fill="rgb(217,223,230)" fill-opacity="1" d=" M22.350000381469727,-21.990999221801758 C22.350000381469727,-21.990999221801758 19.256999969482422,-24.302000045776367 19.256999969482422,-24.302000045776367 C19.256999969482422,-24.302000045776367 -22.350000381469727,21.89299964904785 -22.350000381469727,21.89299964904785 C-22.350000381469727,21.89299964904785 -19.49799919128418,24.302000045776367 -19.49799919128418,24.302000045776367 C-19.49799919128418,24.302000045776367 20.288999557495117,17.0310001373291 20.288999557495117,17.0310001373291 C20.288999557495117,17.0310001373291 22.350000381469727,-21.990999221801758 22.350000381469727,-21.990999221801758z"></path></g><g id="Z75TsxTtoc" opacity="1" transform="matrix(1,0,0,1,111.19400024414062,121.6709976196289)"><path stroke-linecap="butt" stroke-linejoin="miter" fill-opacity="0" stroke-miterlimit="4" id="OHzWouJMNW" stroke="rgb(0,0,0)" stroke-opacity="1" stroke-width="10" d=" M-11.8100004196167,35.7859992980957 C-15.013999938964844,35.7859992980957 -18.02899932861328,34.53900146484375 -20.29599952697754,32.27299880981445 C-22.562999725341797,30.006000518798828 -23.809999465942383,26.992000579833984 -23.809999465942383,23.785999298095703 C-23.809999465942383,20.579999923706055 -22.562999725341797,17.566999435424805 -20.29599952697754,15.300999641418457 C-20.29599952697754,15.300999641418457 -5.048999786376953,0.054999999701976776 -5.048999786376953,0.054999999701976776 C-5.048999786376953,0.054999999701976776 -20.4060001373291,-15.300999641418457 -20.4060001373291,-15.300999641418457 C-22.672000885009766,-17.566999435424805 -23.92099952697754,-20.579999923706055 -23.92099952697754,-23.785999298095703 C-23.92099952697754,-26.990999221801758 -22.672000885009766,-30.006000518798828 -20.4060001373291,-32.27299880981445 C-18.138999938964844,-34.53900146484375 -15.12600040435791,-35.7859992980957 -11.920999526977539,-35.7859992980957 C-8.715999603271484,-35.7859992980957 -5.702000141143799,-34.53900146484375 -3.434999942779541,-32.27299880981445 C-3.434999942779541,-32.27299880981445 20.4060001373291,-8.430000305175781 20.4060001373291,-8.430000305175781 C22.672000885009766,-6.163000106811523 23.92099952697754,-3.1519999504089355 23.92099952697754,0.054999999701976776 C23.92099952697754,3.260999917984009 22.672000885009766,6.27400016784668 20.4060001373291,8.541000366210938 C20.4060001373291,8.541000366210938 -3.325000047683716,32.270999908447266 -3.325000047683716,32.270999908447266 C-5.5920000076293945,34.53799819946289 -8.605999946594238,35.7859992980957 -11.8100004196167,35.7859992980957z"></path><path id="T_hkYVNhgn" fill="rgb(217,223,230)" fill-opacity="1" d=" M-11.8100004196167,35.7859992980957 C-15.013999938964844,35.7859992980957 -18.02899932861328,34.53900146484375 -20.29599952697754,32.27299880981445 C-22.562999725341797,30.006000518798828 -23.809999465942383,26.992000579833984 -23.809999465942383,23.785999298095703 C-23.809999465942383,20.579999923706055 -22.562999725341797,17.566999435424805 -20.29599952697754,15.300999641418457 C-20.29599952697754,15.300999641418457 -5.048999786376953,0.054999999701976776 -5.048999786376953,0.054999999701976776 C-5.048999786376953,0.054999999701976776 -20.4060001373291,-15.300999641418457 -20.4060001373291,-15.300999641418457 C-22.672000885009766,-17.566999435424805 -23.92099952697754,-20.579999923706055 -23.92099952697754,-23.785999298095703 C-23.92099952697754,-26.990999221801758 -22.672000885009766,-30.006000518798828 -20.4060001373291,-32.27299880981445 C-18.138999938964844,-34.53900146484375 -15.12600040435791,-35.7859992980957 -11.920999526977539,-35.7859992980957 C-8.715999603271484,-35.7859992980957 -5.702000141143799,-34.53900146484375 -3.434999942779541,-32.27299880981445 C-3.434999942779541,-32.27299880981445 20.4060001373291,-8.430000305175781 20.4060001373291,-8.430000305175781 C22.672000885009766,-6.163000106811523 23.92099952697754,-3.1519999504089355 23.92099952697754,0.054999999701976776 C23.92099952697754,3.260999917984009 22.672000885009766,6.27400016784668 20.4060001373291,8.541000366210938 C20.4060001373291,8.541000366210938 -3.325000047683716,32.270999908447266 -3.325000047683716,32.270999908447266 C-5.5920000076293945,34.53799819946289 -8.605999946594238,35.7859992980957 -11.8100004196167,35.7859992980957z"></path></g><g id="rYX2_czgmg" opacity="1" transform="matrix(1,0,0,1,59.51100158691406,121.6709976196289)"><path stroke-linecap="butt" stroke-linejoin="miter" fill-opacity="0" stroke-miterlimit="4" id="WXyAnO-wwd" stroke="rgb(0,0,0)" stroke-opacity="1" stroke-width="10" d=" M11.920999526977539,35.7859992980957 C8.717000007629395,35.7859992980957 5.703000068664551,34.53900146484375 3.436000108718872,32.27299880981445 C3.436000108718872,32.27299880981445 -20.4060001373291,8.430000305175781 -20.4060001373291,8.430000305175781 C-22.67300033569336,6.164000034332275 -23.92099952697754,3.1510000228881836 -23.92099952697754,-0.054999999701976776 C-23.92099952697754,-3.260999917984009 -22.67300033569336,-6.276000022888184 -20.4060001373291,-8.541000366210938 C-20.4060001373291,-8.541000366210938 3.325000047683716,-32.27299880981445 3.325000047683716,-32.27299880981445 C5.5920000076293945,-34.53900146484375 8.605999946594238,-35.7859992980957 11.810999870300293,-35.7859992980957 C15.015999794006348,-35.7859992980957 18.02899932861328,-34.53900146484375 20.29599952697754,-32.27299880981445 C22.562999725341797,-30.006000518798828 23.81100082397461,-26.990999221801758 23.81100082397461,-23.785999298095703 C23.81100082397461,-20.579999923706055 22.562999725341797,-17.566999435424805 20.29599952697754,-15.300999641418457 C20.29599952697754,-15.300999641418457 5.050000190734863,-0.054999999701976776 5.050000190734863,-0.054999999701976776 C5.050000190734863,-0.054999999701976776 20.4060001373291,15.300999641418457 20.4060001373291,15.300999641418457 C22.67300033569336,17.566999435424805 23.92099952697754,20.579999923706055 23.92099952697754,23.785999298095703 C23.92099952697754,26.992000579833984 22.67300033569336,30.0049991607666 20.4060001373291,32.270999908447266 C18.138999938964844,34.53799819946289 15.125,35.7859992980957 11.920999526977539,35.7859992980957z"></path><path id="sa8UDbrYtc" fill="rgb(217,223,230)" fill-opacity="1" d=" M11.920999526977539,35.7859992980957 C8.717000007629395,35.7859992980957 5.703000068664551,34.53900146484375 3.436000108718872,32.27299880981445 C3.436000108718872,32.27299880981445 -20.4060001373291,8.430000305175781 -20.4060001373291,8.430000305175781 C-22.67300033569336,6.164000034332275 -23.92099952697754,3.1510000228881836 -23.92099952697754,-0.054999999701976776 C-23.92099952697754,-3.260999917984009 -22.67300033569336,-6.276000022888184 -20.4060001373291,-8.541000366210938 C-20.4060001373291,-8.541000366210938 3.325000047683716,-32.27299880981445 3.325000047683716,-32.27299880981445 C5.5920000076293945,-34.53900146484375 8.605999946594238,-35.7859992980957 11.810999870300293,-35.7859992980957 C15.015999794006348,-35.7859992980957 18.02899932861328,-34.53900146484375 20.29599952697754,-32.27299880981445 C22.562999725341797,-30.006000518798828 23.81100082397461,-26.990999221801758 23.81100082397461,-23.785999298095703 C23.81100082397461,-20.579999923706055 22.562999725341797,-17.566999435424805 20.29599952697754,-15.300999641418457 C20.29599952697754,-15.300999641418457 5.050000190734863,-0.054999999701976776 5.050000190734863,-0.054999999701976776 C5.050000190734863,-0.054999999701976776 20.4060001373291,15.300999641418457 20.4060001373291,15.300999641418457 C22.67300033569336,17.566999435424805 23.92099952697754,20.579999923706055 23.92099952697754,23.785999298095703 C23.92099952697754,26.992000579833984 22.67300033569336,30.0049991607666 20.4060001373291,32.270999908447266 C18.138999938964844,34.53799819946289 15.125,35.7859992980957 11.920999526977539,35.7859992980957z"></path></g></g></g><mask id="__lottie_element_222_3" mask-type="luminance"><use xlink:href="#__lottie_element_222"></use></mask><mask id="__lottie_element_216_3" mask-type="luminance"><use xlink:href="#__lottie_element_216"></use></mask><g id="__lottie_element_228"><g id="yRH7gAVdBm" transform="matrix(1.8300000429153442,0,0,1.8300000429153442,120.98500061035156,62.77000045776367)" opacity="1" style="display: block;"><g id="pe42_fMrXC" opacity="1" transform="matrix(1,0,0,1,64.91300201416016,103.38200378417969)"><path stroke-linecap="butt" stroke-linejoin="miter" fill-opacity="0" stroke-miterlimit="10" id="T99OW_hj4n" stroke="rgb(217,223,230)" stroke-opacity="1" stroke-width="5" d=" M52.41299819946289,68.48100280761719 C52.41299819946289,68.48100280761719 -52.41299819946289,68.48100280761719 -52.41299819946289,68.48100280761719 C-52.41299819946289,68.48100280761719 -52.41299819946289,-22.187999725341797 -52.41299819946289,-22.187999725341797 C-52.41299819946289,-22.187999725341797 -12.62600040435791,-29.45800018310547 -12.62600040435791,-29.45800018310547 C-12.62600040435791,-29.45800018310547 -10.565999984741211,-68.48100280761719 -10.565999984741211,-68.48100280761719 C-10.565999984741211,-68.48100280761719 52.41299819946289,-68.48100280761719 52.41299819946289,-68.48100280761719 C52.41299819946289,-68.48100280761719 52.41299819946289,68.48100280761719 52.41299819946289,68.48100280761719z"></path></g><g id="YCWlx4sDr9" opacity="1" transform="matrix(1,0,0,1,32.49700164794922,56.891998291015625)"><path id="lsYaADgG_v" fill="rgb(217,223,230)" fill-opacity="1" d=" M22.350000381469727,-21.990999221801758 C22.350000381469727,-21.990999221801758 19.256999969482422,-24.302000045776367 19.256999969482422,-24.302000045776367 C19.256999969482422,-24.302000045776367 -22.350000381469727,21.89299964904785 -22.350000381469727,21.89299964904785 C-22.350000381469727,21.89299964904785 -19.49799919128418,24.302000045776367 -19.49799919128418,24.302000045776367 C-19.49799919128418,24.302000045776367 20.288999557495117,17.0310001373291 20.288999557495117,17.0310001373291 C20.288999557495117,17.0310001373291 22.350000381469727,-21.990999221801758 22.350000381469727,-21.990999221801758z"></path></g><g id="BMwkXJSGGz" opacity="1" transform="matrix(0.9848204255104065,-0.1735762357711792,0.1735762357711792,0.9848204255104065,119.13822937011719,121.6709976196289)"><path stroke-linecap="butt" stroke-linejoin="miter" fill-opacity="0" stroke-miterlimit="4" id="FHSQ2LWjVS" stroke="rgb(0,0,0)" stroke-opacity="1" stroke-width="10" d=" M-11.8100004196167,35.7859992980957 C-15.013999938964844,35.7859992980957 -18.02899932861328,34.53900146484375 -20.29599952697754,32.27299880981445 C-22.562999725341797,30.006000518798828 -23.809999465942383,26.992000579833984 -23.809999465942383,23.785999298095703 C-23.809999465942383,20.579999923706055 -22.562999725341797,17.566999435424805 -20.29599952697754,15.300999641418457 C-20.29599952697754,15.300999641418457 -5.048999786376953,0.054999999701976776 -5.048999786376953,0.054999999701976776 C-5.048999786376953,0.054999999701976776 -20.4060001373291,-15.300999641418457 -20.4060001373291,-15.300999641418457 C-22.672000885009766,-17.566999435424805 -23.92099952697754,-20.579999923706055 -23.92099952697754,-23.785999298095703 C-23.92099952697754,-26.990999221801758 -22.672000885009766,-30.006000518798828 -20.4060001373291,-32.27299880981445 C-18.138999938964844,-34.53900146484375 -15.12600040435791,-35.7859992980957 -11.920999526977539,-35.7859992980957 C-8.715999603271484,-35.7859992980957 -5.702000141143799,-34.53900146484375 -3.434999942779541,-32.27299880981445 C-3.434999942779541,-32.27299880981445 20.4060001373291,-8.430000305175781 20.4060001373291,-8.430000305175781 C22.672000885009766,-6.163000106811523 23.92099952697754,-3.1519999504089355 23.92099952697754,0.054999999701976776 C23.92099952697754,3.260999917984009 22.672000885009766,6.27400016784668 20.4060001373291,8.541000366210938 C20.4060001373291,8.541000366210938 -3.325000047683716,32.270999908447266 -3.325000047683716,32.270999908447266 C-5.5920000076293945,34.53799819946289 -8.605999946594238,35.7859992980957 -11.8100004196167,35.7859992980957z"></path><path id="ge_8zJKB_F" fill="rgb(0,0,0)" fill-opacity="1" d=" M-11.8100004196167,35.7859992980957 C-15.013999938964844,35.7859992980957 -18.02899932861328,34.53900146484375 -20.29599952697754,32.27299880981445 C-22.562999725341797,30.006000518798828 -23.809999465942383,26.992000579833984 -23.809999465942383,23.785999298095703 C-23.809999465942383,20.579999923706055 -22.562999725341797,17.566999435424805 -20.29599952697754,15.300999641418457 C-20.29599952697754,15.300999641418457 -5.048999786376953,0.054999999701976776 -5.048999786376953,0.054999999701976776 C-5.048999786376953,0.054999999701976776 -20.4060001373291,-15.300999641418457 -20.4060001373291,-15.300999641418457 C-22.672000885009766,-17.566999435424805 -23.92099952697754,-20.579999923706055 -23.92099952697754,-23.785999298095703 C-23.92099952697754,-26.990999221801758 -22.672000885009766,-30.006000518798828 -20.4060001373291,-32.27299880981445 C-18.138999938964844,-34.53900146484375 -15.12600040435791,-35.7859992980957 -11.920999526977539,-35.7859992980957 C-8.715999603271484,-35.7859992980957 -5.702000141143799,-34.53900146484375 -3.434999942779541,-32.27299880981445 C-3.434999942779541,-32.27299880981445 20.4060001373291,-8.430000305175781 20.4060001373291,-8.430000305175781 C22.672000885009766,-6.163000106811523 23.92099952697754,-3.1519999504089355 23.92099952697754,0.054999999701976776 C23.92099952697754,3.260999917984009 22.672000885009766,6.27400016784668 20.4060001373291,8.541000366210938 C20.4060001373291,8.541000366210938 -3.325000047683716,32.270999908447266 -3.325000047683716,32.270999908447266 C-5.5920000076293945,34.53799819946289 -8.605999946594238,35.7859992980957 -11.8100004196167,35.7859992980957z"></path></g><g id="6FcYKzPtKZ" opacity="1" transform="matrix(0.9848204255104065,-0.1735762357711792,0.1735762357711792,0.9848204255104065,44.77606201171875,121.6709976196289)"><path stroke-linecap="butt" stroke-linejoin="miter" fill-opacity="0" stroke-miterlimit="4" id="rvyXvrFeFR" stroke="rgb(0,0,0)" stroke-opacity="1" stroke-width="10" d=" M11.920999526977539,35.7859992980957 C8.717000007629395,35.7859992980957 5.703000068664551,34.53900146484375 3.436000108718872,32.27299880981445 C3.436000108718872,32.27299880981445 -20.4060001373291,8.430000305175781 -20.4060001373291,8.430000305175781 C-22.67300033569336,6.164000034332275 -23.92099952697754,3.1510000228881836 -23.92099952697754,-0.054999999701976776 C-23.92099952697754,-3.260999917984009 -22.67300033569336,-6.276000022888184 -20.4060001373291,-8.541000366210938 C-20.4060001373291,-8.541000366210938 3.325000047683716,-32.27299880981445 3.325000047683716,-32.27299880981445 C5.5920000076293945,-34.53900146484375 8.605999946594238,-35.7859992980957 11.810999870300293,-35.7859992980957 C15.015999794006348,-35.7859992980957 18.02899932861328,-34.53900146484375 20.29599952697754,-32.27299880981445 C22.562999725341797,-30.006000518798828 23.81100082397461,-26.990999221801758 23.81100082397461,-23.785999298095703 C23.81100082397461,-20.579999923706055 22.562999725341797,-17.566999435424805 20.29599952697754,-15.300999641418457 C20.29599952697754,-15.300999641418457 5.050000190734863,-0.054999999701976776 5.050000190734863,-0.054999999701976776 C5.050000190734863,-0.054999999701976776 20.4060001373291,15.300999641418457 20.4060001373291,15.300999641418457 C22.67300033569336,17.566999435424805 23.92099952697754,20.579999923706055 23.92099952697754,23.785999298095703 C23.92099952697754,26.992000579833984 22.67300033569336,30.0049991607666 20.4060001373291,32.270999908447266 C18.138999938964844,34.53799819946289 15.125,35.7859992980957 11.920999526977539,35.7859992980957z"></path><path id="FKdnCjceqQ" fill="rgb(0,0,0)" fill-opacity="1" d=" M11.920999526977539,35.7859992980957 C8.717000007629395,35.7859992980957 5.703000068664551,34.53900146484375 3.436000108718872,32.27299880981445 C3.436000108718872,32.27299880981445 -20.4060001373291,8.430000305175781 -20.4060001373291,8.430000305175781 C-22.67300033569336,6.164000034332275 -23.92099952697754,3.1510000228881836 -23.92099952697754,-0.054999999701976776 C-23.92099952697754,-3.260999917984009 -22.67300033569336,-6.276000022888184 -20.4060001373291,-8.541000366210938 C-20.4060001373291,-8.541000366210938 3.325000047683716,-32.27299880981445 3.325000047683716,-32.27299880981445 C5.5920000076293945,-34.53900146484375 8.605999946594238,-35.7859992980957 11.810999870300293,-35.7859992980957 C15.015999794006348,-35.7859992980957 18.02899932861328,-34.53900146484375 20.29599952697754,-32.27299880981445 C22.562999725341797,-30.006000518798828 23.81100082397461,-26.990999221801758 23.81100082397461,-23.785999298095703 C23.81100082397461,-20.579999923706055 22.562999725341797,-17.566999435424805 20.29599952697754,-15.300999641418457 C20.29599952697754,-15.300999641418457 5.050000190734863,-0.054999999701976776 5.050000190734863,-0.054999999701976776 C5.050000190734863,-0.054999999701976776 20.4060001373291,15.300999641418457 20.4060001373291,15.300999641418457 C22.67300033569336,17.566999435424805 23.92099952697754,20.579999923706055 23.92099952697754,23.785999298095703 C23.92099952697754,26.992000579833984 22.67300033569336,30.0049991607666 20.4060001373291,32.270999908447266 C18.138999938964844,34.53799819946289 15.125,35.7859992980957 11.920999526977539,35.7859992980957z"></path></g></g></g><g id="__lottie_element_234"><g id="1cXzH8Kld0" transform="matrix(1.8300000429153442,0,0,1.8300000429153442,120.98500061035156,62.77000045776367)" opacity="1" style="display: block;"><g id="oh4gGSj4Am" opacity="1" transform="matrix(1,0,0,1,64.91300201416016,103.38200378417969)"><path stroke-linecap="butt" stroke-linejoin="miter" fill-opacity="0" stroke-miterlimit="10" id="xXCUdVM2gv" stroke="rgb(217,223,230)" stroke-opacity="1" stroke-width="5" d=" M52.41299819946289,68.48100280761719 C52.41299819946289,68.48100280761719 -52.41299819946289,68.48100280761719 -52.41299819946289,68.48100280761719 C-52.41299819946289,68.48100280761719 -52.41299819946289,-22.187999725341797 -52.41299819946289,-22.187999725341797 C-52.41299819946289,-22.187999725341797 -12.62600040435791,-29.45800018310547 -12.62600040435791,-29.45800018310547 C-12.62600040435791,-29.45800018310547 -10.565999984741211,-68.48100280761719 -10.565999984741211,-68.48100280761719 C-10.565999984741211,-68.48100280761719 52.41299819946289,-68.48100280761719 52.41299819946289,-68.48100280761719 C52.41299819946289,-68.48100280761719 52.41299819946289,68.48100280761719 52.41299819946289,68.48100280761719z"></path></g><g id="4GQodyfCL2" opacity="1" transform="matrix(1,0,0,1,32.49700164794922,56.891998291015625)"><path id="hXzes6H2oJ" fill="rgb(217,223,230)" fill-opacity="1" d=" M22.350000381469727,-21.990999221801758 C22.350000381469727,-21.990999221801758 19.256999969482422,-24.302000045776367 19.256999969482422,-24.302000045776367 C19.256999969482422,-24.302000045776367 -22.350000381469727,21.89299964904785 -22.350000381469727,21.89299964904785 C-22.350000381469727,21.89299964904785 -19.49799919128418,24.302000045776367 -19.49799919128418,24.302000045776367 C-19.49799919128418,24.302000045776367 20.288999557495117,17.0310001373291 20.288999557495117,17.0310001373291 C20.288999557495117,17.0310001373291 22.350000381469727,-21.990999221801758 22.350000381469727,-21.990999221801758z"></path></g><g id="BDsKHtT9XS" opacity="1" transform="matrix(0.9848204255104065,-0.1735762357711792,0.1735762357711792,0.9848204255104065,119.13822937011719,121.6709976196289)"><path stroke-linecap="butt" stroke-linejoin="miter" fill-opacity="0" stroke-miterlimit="4" id="Ocvd_iidM5" stroke="rgb(0,0,0)" stroke-opacity="1" stroke-width="10" d=" M-11.8100004196167,35.7859992980957 C-15.013999938964844,35.7859992980957 -18.02899932861328,34.53900146484375 -20.29599952697754,32.27299880981445 C-22.562999725341797,30.006000518798828 -23.809999465942383,26.992000579833984 -23.809999465942383,23.785999298095703 C-23.809999465942383,20.579999923706055 -22.562999725341797,17.566999435424805 -20.29599952697754,15.300999641418457 C-20.29599952697754,15.300999641418457 -5.048999786376953,0.054999999701976776 -5.048999786376953,0.054999999701976776 C-5.048999786376953,0.054999999701976776 -20.4060001373291,-15.300999641418457 -20.4060001373291,-15.300999641418457 C-22.672000885009766,-17.566999435424805 -23.92099952697754,-20.579999923706055 -23.92099952697754,-23.785999298095703 C-23.92099952697754,-26.990999221801758 -22.672000885009766,-30.006000518798828 -20.4060001373291,-32.27299880981445 C-18.138999938964844,-34.53900146484375 -15.12600040435791,-35.7859992980957 -11.920999526977539,-35.7859992980957 C-8.715999603271484,-35.7859992980957 -5.702000141143799,-34.53900146484375 -3.434999942779541,-32.27299880981445 C-3.434999942779541,-32.27299880981445 20.4060001373291,-8.430000305175781 20.4060001373291,-8.430000305175781 C22.672000885009766,-6.163000106811523 23.92099952697754,-3.1519999504089355 23.92099952697754,0.054999999701976776 C23.92099952697754,3.260999917984009 22.672000885009766,6.27400016784668 20.4060001373291,8.541000366210938 C20.4060001373291,8.541000366210938 -3.325000047683716,32.270999908447266 -3.325000047683716,32.270999908447266 C-5.5920000076293945,34.53799819946289 -8.605999946594238,35.7859992980957 -11.8100004196167,35.7859992980957z"></path><path id="gQFNjEp2SD" fill="rgb(217,223,230)" fill-opacity="1" d=" M-11.8100004196167,35.7859992980957 C-15.013999938964844,35.7859992980957 -18.02899932861328,34.53900146484375 -20.29599952697754,32.27299880981445 C-22.562999725341797,30.006000518798828 -23.809999465942383,26.992000579833984 -23.809999465942383,23.785999298095703 C-23.809999465942383,20.579999923706055 -22.562999725341797,17.566999435424805 -20.29599952697754,15.300999641418457 C-20.29599952697754,15.300999641418457 -5.048999786376953,0.054999999701976776 -5.048999786376953,0.054999999701976776 C-5.048999786376953,0.054999999701976776 -20.4060001373291,-15.300999641418457 -20.4060001373291,-15.300999641418457 C-22.672000885009766,-17.566999435424805 -23.92099952697754,-20.579999923706055 -23.92099952697754,-23.785999298095703 C-23.92099952697754,-26.990999221801758 -22.672000885009766,-30.006000518798828 -20.4060001373291,-32.27299880981445 C-18.138999938964844,-34.53900146484375 -15.12600040435791,-35.7859992980957 -11.920999526977539,-35.7859992980957 C-8.715999603271484,-35.7859992980957 -5.702000141143799,-34.53900146484375 -3.434999942779541,-32.27299880981445 C-3.434999942779541,-32.27299880981445 20.4060001373291,-8.430000305175781 20.4060001373291,-8.430000305175781 C22.672000885009766,-6.163000106811523 23.92099952697754,-3.1519999504089355 23.92099952697754,0.054999999701976776 C23.92099952697754,3.260999917984009 22.672000885009766,6.27400016784668 20.4060001373291,8.541000366210938 C20.4060001373291,8.541000366210938 -3.325000047683716,32.270999908447266 -3.325000047683716,32.270999908447266 C-5.5920000076293945,34.53799819946289 -8.605999946594238,35.7859992980957 -11.8100004196167,35.7859992980957z"></path></g><g id="548tt0CTnO" opacity="1" transform="matrix(0.9848204255104065,-0.1735762357711792,0.1735762357711792,0.9848204255104065,44.77606201171875,121.6709976196289)"><path stroke-linecap="butt" stroke-linejoin="miter" fill-opacity="0" stroke-miterlimit="4" id="0oh3zn7Ew4" stroke="rgb(0,0,0)" stroke-opacity="1" stroke-width="10" d=" M11.920999526977539,35.7859992980957 C8.717000007629395,35.7859992980957 5.703000068664551,34.53900146484375 3.436000108718872,32.27299880981445 C3.436000108718872,32.27299880981445 -20.4060001373291,8.430000305175781 -20.4060001373291,8.430000305175781 C-22.67300033569336,6.164000034332275 -23.92099952697754,3.1510000228881836 -23.92099952697754,-0.054999999701976776 C-23.92099952697754,-3.260999917984009 -22.67300033569336,-6.276000022888184 -20.4060001373291,-8.541000366210938 C-20.4060001373291,-8.541000366210938 3.325000047683716,-32.27299880981445 3.325000047683716,-32.27299880981445 C5.5920000076293945,-34.53900146484375 8.605999946594238,-35.7859992980957 11.810999870300293,-35.7859992980957 C15.015999794006348,-35.7859992980957 18.02899932861328,-34.53900146484375 20.29599952697754,-32.27299880981445 C22.562999725341797,-30.006000518798828 23.81100082397461,-26.990999221801758 23.81100082397461,-23.785999298095703 C23.81100082397461,-20.579999923706055 22.562999725341797,-17.566999435424805 20.29599952697754,-15.300999641418457 C20.29599952697754,-15.300999641418457 5.050000190734863,-0.054999999701976776 5.050000190734863,-0.054999999701976776 C5.050000190734863,-0.054999999701976776 20.4060001373291,15.300999641418457 20.4060001373291,15.300999641418457 C22.67300033569336,17.566999435424805 23.92099952697754,20.579999923706055 23.92099952697754,23.785999298095703 C23.92099952697754,26.992000579833984 22.67300033569336,30.0049991607666 20.4060001373291,32.270999908447266 C18.138999938964844,34.53799819946289 15.125,35.7859992980957 11.920999526977539,35.7859992980957z"></path><path id="Xr_n_nczAS" fill="rgb(217,223,230)" fill-opacity="1" d=" M11.920999526977539,35.7859992980957 C8.717000007629395,35.7859992980957 5.703000068664551,34.53900146484375 3.436000108718872,32.27299880981445 C3.436000108718872,32.27299880981445 -20.4060001373291,8.430000305175781 -20.4060001373291,8.430000305175781 C-22.67300033569336,6.164000034332275 -23.92099952697754,3.1510000228881836 -23.92099952697754,-0.054999999701976776 C-23.92099952697754,-3.260999917984009 -22.67300033569336,-6.276000022888184 -20.4060001373291,-8.541000366210938 C-20.4060001373291,-8.541000366210938 3.325000047683716,-32.27299880981445 3.325000047683716,-32.27299880981445 C5.5920000076293945,-34.53900146484375 8.605999946594238,-35.7859992980957 11.810999870300293,-35.7859992980957 C15.015999794006348,-35.7859992980957 18.02899932861328,-34.53900146484375 20.29599952697754,-32.27299880981445 C22.562999725341797,-30.006000518798828 23.81100082397461,-26.990999221801758 23.81100082397461,-23.785999298095703 C23.81100082397461,-20.579999923706055 22.562999725341797,-17.566999435424805 20.29599952697754,-15.300999641418457 C20.29599952697754,-15.300999641418457 5.050000190734863,-0.054999999701976776 5.050000190734863,-0.054999999701976776 C5.050000190734863,-0.054999999701976776 20.4060001373291,15.300999641418457 20.4060001373291,15.300999641418457 C22.67300033569336,17.566999435424805 23.92099952697754,20.579999923706055 23.92099952697754,23.785999298095703 C23.92099952697754,26.992000579833984 22.67300033569336,30.0049991607666 20.4060001373291,32.270999908447266 C18.138999938964844,34.53799819946289 15.125,35.7859992980957 11.920999526977539,35.7859992980957z"></path></g></g></g><mask id="__lottie_element_234_3" mask-type="luminance"><use xlink:href="#__lottie_element_234"></use></mask><mask id="__lottie_element_228_3" mask-type="luminance"><use xlink:href="#__lottie_element_228"></use></mask></defs><g clip-path="url(#__lottie_element_211)"><g mask="url(#__lottie_element_216_3)" style="display: none;"><g id="trnEqBmAWV" transform="matrix(1.8300000429153442,0,0,1.8300000429153442,120.98500061035156,62.77000045776367)" opacity="1" class=""><g id="crIij5jqMC" opacity="1" transform="matrix(1,0,0,1,64.91300201416016,103.38200378417969)"><path stroke-linecap="butt" stroke-linejoin="miter" fill-opacity="0" stroke-miterlimit="10" id="HvQ9DGa8Od" stroke="rgb(32,38,43)" stroke-opacity="1" stroke-width="5" d=" M52.41299819946289,68.48100280761719 C52.41299819946289,68.48100280761719 -52.41299819946289,68.48100280761719 -52.41299819946289,68.48100280761719 C-52.41299819946289,68.48100280761719 -52.41299819946289,-22.187999725341797 -52.41299819946289,-22.187999725341797 C-52.41299819946289,-22.187999725341797 -12.62600040435791,-29.45800018310547 -12.62600040435791,-29.45800018310547 C-12.62600040435791,-29.45800018310547 -10.565999984741211,-68.48100280761719 -10.565999984741211,-68.48100280761719 C-10.565999984741211,-68.48100280761719 52.41299819946289,-68.48100280761719 52.41299819946289,-68.48100280761719 C52.41299819946289,-68.48100280761719 52.41299819946289,68.48100280761719 52.41299819946289,68.48100280761719z"></path></g><g id="jKxMRFTVdg" opacity="1" transform="matrix(1,0,0,1,32.49700164794922,56.891998291015625)"><path id="Cu1Tr7ujuD" fill="rgb(32,38,43)" fill-opacity="1" d=" M22.350000381469727,-21.990999221801758 C22.350000381469727,-21.990999221801758 19.256999969482422,-24.302000045776367 19.256999969482422,-24.302000045776367 C19.256999969482422,-24.302000045776367 -22.350000381469727,21.89299964904785 -22.350000381469727,21.89299964904785 C-22.350000381469727,21.89299964904785 -19.49799919128418,24.302000045776367 -19.49799919128418,24.302000045776367 C-19.49799919128418,24.302000045776367 20.288999557495117,17.0310001373291 20.288999557495117,17.0310001373291 C20.288999557495117,17.0310001373291 22.350000381469727,-21.990999221801758 22.350000381469727,-21.990999221801758z"></path></g></g></g><g mask="url(#__lottie_element_222_3)" style="display: none;"><g id="kJArOHswo7" transform="matrix(1.8300000429153442,0,0,1.8300000429153442,120.98500061035156,62.77000045776367)" opacity="1" class=""><g id="2ddvrSn4mT" opacity="1" transform="matrix(1,0,0,1,111.19400024414062,121.6709976196289)"><path id="7IQj7Dseza" fill="rgb(0,135,255)" fill-opacity="1" d=" M-11.8100004196167,35.7859992980957 C-15.013999938964844,35.7859992980957 -18.02899932861328,34.53900146484375 -20.29599952697754,32.27299880981445 C-22.562999725341797,30.006000518798828 -23.809999465942383,26.992000579833984 -23.809999465942383,23.785999298095703 C-23.809999465942383,20.579999923706055 -22.562999725341797,17.566999435424805 -20.29599952697754,15.300999641418457 C-20.29599952697754,15.300999641418457 -5.048999786376953,0.054999999701976776 -5.048999786376953,0.054999999701976776 C-5.048999786376953,0.054999999701976776 -20.4060001373291,-15.300999641418457 -20.4060001373291,-15.300999641418457 C-22.672000885009766,-17.566999435424805 -23.92099952697754,-20.579999923706055 -23.92099952697754,-23.785999298095703 C-23.92099952697754,-26.990999221801758 -22.672000885009766,-30.006000518798828 -20.4060001373291,-32.27299880981445 C-18.138999938964844,-34.53900146484375 -15.12600040435791,-35.7859992980957 -11.920999526977539,-35.7859992980957 C-8.715999603271484,-35.7859992980957 -5.702000141143799,-34.53900146484375 -3.434999942779541,-32.27299880981445 C-3.434999942779541,-32.27299880981445 20.4060001373291,-8.430000305175781 20.4060001373291,-8.430000305175781 C22.672000885009766,-6.163000106811523 23.92099952697754,-3.1519999504089355 23.92099952697754,0.054999999701976776 C23.92099952697754,3.260999917984009 22.672000885009766,6.27400016784668 20.4060001373291,8.541000366210938 C20.4060001373291,8.541000366210938 -3.325000047683716,32.270999908447266 -3.325000047683716,32.270999908447266 C-5.5920000076293945,34.53799819946289 -8.605999946594238,35.7859992980957 -11.8100004196167,35.7859992980957z"></path></g><g id="kfaCo3Kih-" opacity="1" transform="matrix(1,0,0,1,59.51100158691406,121.6709976196289)"><path id="PMJOWQzyye" fill="rgb(0,135,255)" fill-opacity="1" d=" M11.920999526977539,35.7859992980957 C8.717000007629395,35.7859992980957 5.703000068664551,34.53900146484375 3.436000108718872,32.27299880981445 C3.436000108718872,32.27299880981445 -20.4060001373291,8.430000305175781 -20.4060001373291,8.430000305175781 C-22.67300033569336,6.164000034332275 -23.92099952697754,3.1510000228881836 -23.92099952697754,-0.054999999701976776 C-23.92099952697754,-3.260999917984009 -22.67300033569336,-6.276000022888184 -20.4060001373291,-8.541000366210938 C-20.4060001373291,-8.541000366210938 3.325000047683716,-32.27299880981445 3.325000047683716,-32.27299880981445 C5.5920000076293945,-34.53900146484375 8.605999946594238,-35.7859992980957 11.810999870300293,-35.7859992980957 C15.015999794006348,-35.7859992980957 18.02899932861328,-34.53900146484375 20.29599952697754,-32.27299880981445 C22.562999725341797,-30.006000518798828 23.81100082397461,-26.990999221801758 23.81100082397461,-23.785999298095703 C23.81100082397461,-20.579999923706055 22.562999725341797,-17.566999435424805 20.29599952697754,-15.300999641418457 C20.29599952697754,-15.300999641418457 5.050000190734863,-0.054999999701976776 5.050000190734863,-0.054999999701976776 C5.050000190734863,-0.054999999701976776 20.4060001373291,15.300999641418457 20.4060001373291,15.300999641418457 C22.67300033569336,17.566999435424805 23.92099952697754,20.579999923706055 23.92099952697754,23.785999298095703 C23.92099952697754,26.992000579833984 22.67300033569336,30.0049991607666 20.4060001373291,32.270999908447266 C18.138999938964844,34.53799819946289 15.125,35.7859992980957 11.920999526977539,35.7859992980957z"></path></g></g></g><g mask="url(#__lottie_element_228_3)" style="display: block;"><g id="Xa8PdorKnh" transform="matrix(1.8300000429153442,0,0,1.8300000429153442,120.98500061035156,62.77000045776367)" opacity="1"><g id="Ewx5fYknDj" opacity="1" transform="matrix(1,0,0,1,64.91300201416016,103.38200378417969)"><path stroke-linecap="butt" stroke-linejoin="miter" fill-opacity="0" stroke-miterlimit="10" id="9UX3sXG4no" stroke="rgb(32,38,43)" stroke-opacity="1" stroke-width="5" d=" M52.41299819946289,68.48100280761719 C52.41299819946289,68.48100280761719 -52.41299819946289,68.48100280761719 -52.41299819946289,68.48100280761719 C-52.41299819946289,68.48100280761719 -52.41299819946289,-22.187999725341797 -52.41299819946289,-22.187999725341797 C-52.41299819946289,-22.187999725341797 -12.62600040435791,-29.45800018310547 -12.62600040435791,-29.45800018310547 C-12.62600040435791,-29.45800018310547 -10.565999984741211,-68.48100280761719 -10.565999984741211,-68.48100280761719 C-10.565999984741211,-68.48100280761719 52.41299819946289,-68.48100280761719 52.41299819946289,-68.48100280761719 C52.41299819946289,-68.48100280761719 52.41299819946289,68.48100280761719 52.41299819946289,68.48100280761719z"></path></g><g id="BOCO1qGqTt" opacity="1" transform="matrix(1,0,0,1,32.49700164794922,56.891998291015625)"><path id="jPfrTGerwY" fill="rgb(32,38,43)" fill-opacity="1" d=" M22.350000381469727,-21.990999221801758 C22.350000381469727,-21.990999221801758 19.256999969482422,-24.302000045776367 19.256999969482422,-24.302000045776367 C19.256999969482422,-24.302000045776367 -22.350000381469727,21.89299964904785 -22.350000381469727,21.89299964904785 C-22.350000381469727,21.89299964904785 -19.49799919128418,24.302000045776367 -19.49799919128418,24.302000045776367 C-19.49799919128418,24.302000045776367 20.288999557495117,17.0310001373291 20.288999557495117,17.0310001373291 C20.288999557495117,17.0310001373291 22.350000381469727,-21.990999221801758 22.350000381469727,-21.990999221801758z"></path></g></g></g><g mask="url(#__lottie_element_234_3)" style="display: block;"><g id="tRGxZE7MHK" transform="matrix(1.8300000429153442,0,0,1.8300000429153442,120.98500061035156,62.77000045776367)" opacity="1"><g id="I4rE_CBBHm" opacity="1" transform="matrix(0.9848204255104065,-0.1735762357711792,0.1735762357711792,0.9848204255104065,119.13822937011719,121.6709976196289)"><path id="Ddiee79Csj" fill="rgb(0,135,255)" fill-opacity="1" d=" M-11.8100004196167,35.7859992980957 C-15.013999938964844,35.7859992980957 -18.02899932861328,34.53900146484375 -20.29599952697754,32.27299880981445 C-22.562999725341797,30.006000518798828 -23.809999465942383,26.992000579833984 -23.809999465942383,23.785999298095703 C-23.809999465942383,20.579999923706055 -22.562999725341797,17.566999435424805 -20.29599952697754,15.300999641418457 C-20.29599952697754,15.300999641418457 -5.048999786376953,0.054999999701976776 -5.048999786376953,0.054999999701976776 C-5.048999786376953,0.054999999701976776 -20.4060001373291,-15.300999641418457 -20.4060001373291,-15.300999641418457 C-22.672000885009766,-17.566999435424805 -23.92099952697754,-20.579999923706055 -23.92099952697754,-23.785999298095703 C-23.92099952697754,-26.990999221801758 -22.672000885009766,-30.006000518798828 -20.4060001373291,-32.27299880981445 C-18.138999938964844,-34.53900146484375 -15.12600040435791,-35.7859992980957 -11.920999526977539,-35.7859992980957 C-8.715999603271484,-35.7859992980957 -5.702000141143799,-34.53900146484375 -3.434999942779541,-32.27299880981445 C-3.434999942779541,-32.27299880981445 20.4060001373291,-8.430000305175781 20.4060001373291,-8.430000305175781 C22.672000885009766,-6.163000106811523 23.92099952697754,-3.1519999504089355 23.92099952697754,0.054999999701976776 C23.92099952697754,3.260999917984009 22.672000885009766,6.27400016784668 20.4060001373291,8.541000366210938 C20.4060001373291,8.541000366210938 -3.325000047683716,32.270999908447266 -3.325000047683716,32.270999908447266 C-5.5920000076293945,34.53799819946289 -8.605999946594238,35.7859992980957 -11.8100004196167,35.7859992980957z"></path></g><g id="CBkYHuV5BE" opacity="1" transform="matrix(0.9848204255104065,-0.1735762357711792,0.1735762357711792,0.9848204255104065,44.77606201171875,121.6709976196289)"><path id="HT1BtRWclr" fill="rgb(0,135,255)" fill-opacity="1" d=" M11.920999526977539,35.7859992980957 C8.717000007629395,35.7859992980957 5.703000068664551,34.53900146484375 3.436000108718872,32.27299880981445 C3.436000108718872,32.27299880981445 -20.4060001373291,8.430000305175781 -20.4060001373291,8.430000305175781 C-22.67300033569336,6.164000034332275 -23.92099952697754,3.1510000228881836 -23.92099952697754,-0.054999999701976776 C-23.92099952697754,-3.260999917984009 -22.67300033569336,-6.276000022888184 -20.4060001373291,-8.541000366210938 C-20.4060001373291,-8.541000366210938 3.325000047683716,-32.27299880981445 3.325000047683716,-32.27299880981445 C5.5920000076293945,-34.53900146484375 8.605999946594238,-35.7859992980957 11.810999870300293,-35.7859992980957 C15.015999794006348,-35.7859992980957 18.02899932861328,-34.53900146484375 20.29599952697754,-32.27299880981445 C22.562999725341797,-30.006000518798828 23.81100082397461,-26.990999221801758 23.81100082397461,-23.785999298095703 C23.81100082397461,-20.579999923706055 22.562999725341797,-17.566999435424805 20.29599952697754,-15.300999641418457 C20.29599952697754,-15.300999641418457 5.050000190734863,-0.054999999701976776 5.050000190734863,-0.054999999701976776 C5.050000190734863,-0.054999999701976776 20.4060001373291,15.300999641418457 20.4060001373291,15.300999641418457 C22.67300033569336,17.566999435424805 23.92099952697754,20.579999923706055 23.92099952697754,23.785999298095703 C23.92099952697754,26.992000579833984 22.67300033569336,30.0049991607666 20.4060001373291,32.270999908447266 C18.138999938964844,34.53799819946289 15.125,35.7859992980957 11.920999526977539,35.7859992980957z"></path></g></g></g></g></svg>